<mxfile host="app.diagrams.net" modified="2021-12-02T13:57:33.120Z" agent="5.0 (Macintosh; Intel Mac OS X 10_15_7) AppleWebKit/537.36 (KHTML, like Gecko) Chrome/95.0.4638.69 Safari/537.36" etag="iFTDH4h_f8_InJ18D_um" version="15.8.8" type="github">
  <diagram id="BMV4pajkjTuRC8wFKSMc" name="Page-1">
    <mxGraphModel dx="2066" dy="1096" grid="1" gridSize="12" guides="1" tooltips="1" connect="1" arrows="1" fold="1" page="1" pageScale="1" pageWidth="827" pageHeight="1169" math="0" shadow="0">
      <root>
        <mxCell id="0" />
        <mxCell id="1" parent="0" />
        <mxCell id="xkxuNR7XWLQNJIoaxg5K-22" value="" style="rounded=0;whiteSpace=wrap;html=1;fillColor=#d5e8d4;strokeColor=#82b366;" vertex="1" parent="1">
          <mxGeometry x="506.5" y="380" width="148.33" height="178" as="geometry" />
        </mxCell>
        <mxCell id="xkxuNR7XWLQNJIoaxg5K-3" value="" style="rounded=0;whiteSpace=wrap;html=1;fillColor=#d5e8d4;strokeColor=#82b366;" vertex="1" parent="1">
          <mxGeometry x="121" y="190" width="150" height="270" as="geometry" />
        </mxCell>
        <mxCell id="xkxuNR7XWLQNJIoaxg5K-4" value="业务逻辑" style="rounded=0;whiteSpace=wrap;html=1;fillColor=#ffe6cc;strokeColor=#d79b00;" vertex="1" parent="1">
          <mxGeometry x="131" y="200" width="130" height="30" as="geometry" />
        </mxCell>
        <mxCell id="xkxuNR7XWLQNJIoaxg5K-5" value="" style="rounded=0;whiteSpace=wrap;html=1;fillColor=#dae8fc;strokeColor=#6c8ebf;" vertex="1" parent="1">
          <mxGeometry x="131" y="240" width="130" height="200" as="geometry" />
        </mxCell>
        <mxCell id="xkxuNR7XWLQNJIoaxg5K-6" value="协议编解码" style="rounded=1;whiteSpace=wrap;html=1;fillColor=#e1d5e7;strokeColor=#9673a6;" vertex="1" parent="1">
          <mxGeometry x="141" y="260" width="110" height="30" as="geometry" />
        </mxCell>
        <mxCell id="xkxuNR7XWLQNJIoaxg5K-7" value="服务发现/注册" style="rounded=1;whiteSpace=wrap;html=1;fillColor=#e1d5e7;strokeColor=#9673a6;" vertex="1" parent="1">
          <mxGeometry x="141" y="295" width="110" height="30" as="geometry" />
        </mxCell>
        <mxCell id="xkxuNR7XWLQNJIoaxg5K-8" value="负载均衡" style="rounded=1;whiteSpace=wrap;html=1;fillColor=#e1d5e7;strokeColor=#9673a6;" vertex="1" parent="1">
          <mxGeometry x="141" y="329" width="110" height="30" as="geometry" />
        </mxCell>
        <mxCell id="xkxuNR7XWLQNJIoaxg5K-9" value="熔断限流" style="rounded=1;whiteSpace=wrap;html=1;fillColor=#e1d5e7;strokeColor=#9673a6;" vertex="1" parent="1">
          <mxGeometry x="141" y="364" width="110" height="30" as="geometry" />
        </mxCell>
        <mxCell id="xkxuNR7XWLQNJIoaxg5K-10" value="......" style="rounded=1;whiteSpace=wrap;html=1;fillColor=#e1d5e7;strokeColor=#9673a6;" vertex="1" parent="1">
          <mxGeometry x="141" y="400" width="110" height="30" as="geometry" />
        </mxCell>
        <mxCell id="xkxuNR7XWLQNJIoaxg5K-11" value="SDK" style="text;html=1;strokeColor=none;fillColor=none;align=center;verticalAlign=middle;whiteSpace=wrap;rounded=0;" vertex="1" parent="1">
          <mxGeometry x="120" y="235" width="60" height="30" as="geometry" />
        </mxCell>
        <mxCell id="xkxuNR7XWLQNJIoaxg5K-12" value="" style="shape=flexArrow;endArrow=classic;html=1;rounded=0;width=16;endSize=7;fillColor=#d5e8d4;strokeColor=#82b366;" edge="1" parent="1">
          <mxGeometry width="50" height="50" relative="1" as="geometry">
            <mxPoint x="360" y="309.5" as="sourcePoint" />
            <mxPoint x="400" y="309.5" as="targetPoint" />
          </mxGeometry>
        </mxCell>
        <mxCell id="xkxuNR7XWLQNJIoaxg5K-13" value="" style="rounded=0;whiteSpace=wrap;html=1;fillColor=#d5e8d4;strokeColor=#82b366;" vertex="1" parent="1">
          <mxGeometry x="505" y="180" width="150" height="120" as="geometry" />
        </mxCell>
        <mxCell id="xkxuNR7XWLQNJIoaxg5K-14" value="业务逻辑" style="rounded=0;whiteSpace=wrap;html=1;fillColor=#ffe6cc;strokeColor=#d79b00;" vertex="1" parent="1">
          <mxGeometry x="515" y="190" width="130" height="30" as="geometry" />
        </mxCell>
        <mxCell id="xkxuNR7XWLQNJIoaxg5K-15" value="" style="rounded=0;whiteSpace=wrap;html=1;fillColor=#dae8fc;strokeColor=#6c8ebf;" vertex="1" parent="1">
          <mxGeometry x="515" y="230" width="130" height="60" as="geometry" />
        </mxCell>
        <mxCell id="xkxuNR7XWLQNJIoaxg5K-16" value="协议编解码" style="rounded=1;whiteSpace=wrap;html=1;fillColor=#e1d5e7;strokeColor=#9673a6;" vertex="1" parent="1">
          <mxGeometry x="525" y="250" width="110" height="30" as="geometry" />
        </mxCell>
        <mxCell id="xkxuNR7XWLQNJIoaxg5K-21" value="SDK" style="text;html=1;strokeColor=none;fillColor=none;align=center;verticalAlign=middle;whiteSpace=wrap;rounded=0;" vertex="1" parent="1">
          <mxGeometry x="504" y="225" width="60" height="30" as="geometry" />
        </mxCell>
        <mxCell id="xkxuNR7XWLQNJIoaxg5K-26" value="服务发现/注册" style="rounded=1;whiteSpace=wrap;html=1;fillColor=#e1d5e7;strokeColor=#9673a6;" vertex="1" parent="1">
          <mxGeometry x="526.5" y="404" width="110" height="30" as="geometry" />
        </mxCell>
        <mxCell id="xkxuNR7XWLQNJIoaxg5K-27" value="负载均衡" style="rounded=1;whiteSpace=wrap;html=1;fillColor=#e1d5e7;strokeColor=#9673a6;" vertex="1" parent="1">
          <mxGeometry x="526.5" y="438" width="110" height="30" as="geometry" />
        </mxCell>
        <mxCell id="xkxuNR7XWLQNJIoaxg5K-28" value="熔断限流" style="rounded=1;whiteSpace=wrap;html=1;fillColor=#e1d5e7;strokeColor=#9673a6;" vertex="1" parent="1">
          <mxGeometry x="526.5" y="473" width="110" height="30" as="geometry" />
        </mxCell>
        <mxCell id="xkxuNR7XWLQNJIoaxg5K-29" value="......" style="rounded=1;whiteSpace=wrap;html=1;fillColor=#e1d5e7;strokeColor=#9673a6;" vertex="1" parent="1">
          <mxGeometry x="526.5" y="509" width="110" height="30" as="geometry" />
        </mxCell>
        <mxCell id="xkxuNR7XWLQNJIoaxg5K-31" value="" style="shape=cross;whiteSpace=wrap;html=1;fillColor=#d5e8d4;strokeColor=#82b366;size=0.15555555555555556;" vertex="1" parent="1">
          <mxGeometry x="559" y="320" width="45" height="45" as="geometry" />
        </mxCell>
        <mxCell id="xkxuNR7XWLQNJIoaxg5K-56" value="" style="endArrow=none;dashed=1;html=1;dashPattern=1 3;strokeWidth=2;rounded=0;fontSize=14;jumpStyle=none;exitX=1;exitY=0.25;exitDx=0;exitDy=0;" edge="1" parent="1" source="xkxuNR7XWLQNJIoaxg5K-7">
          <mxGeometry width="50" height="50" relative="1" as="geometry">
            <mxPoint x="476.5" y="454" as="sourcePoint" />
            <mxPoint x="526.5" y="404" as="targetPoint" />
          </mxGeometry>
        </mxCell>
        <mxCell id="xkxuNR7XWLQNJIoaxg5K-57" value="" style="endArrow=none;dashed=1;html=1;dashPattern=1 3;strokeWidth=2;rounded=0;fontSize=14;jumpStyle=none;exitX=1;exitY=1;exitDx=0;exitDy=0;entryX=0;entryY=1;entryDx=0;entryDy=0;" edge="1" parent="1" source="xkxuNR7XWLQNJIoaxg5K-10" target="xkxuNR7XWLQNJIoaxg5K-29">
          <mxGeometry width="50" height="50" relative="1" as="geometry">
            <mxPoint x="263" y="314.5" as="sourcePoint" />
            <mxPoint x="538.5" y="416" as="targetPoint" />
          </mxGeometry>
        </mxCell>
      </root>
    </mxGraphModel>
  </diagram>
</mxfile>
